<?xml version="1.0" encoding="utf-8"?>
<!-- Generator: Adobe Illustrator 16.0.0, SVG Export Plug-In . SVG Version: 6.00 Build 0)  -->
<!DOCTYPE svg PUBLIC "-//W3C//DTD SVG 1.1//EN" "http://www.w3.org/Graphics/SVG/1.1/DTD/svg11.dtd">
<svg version="1.1" id="Layer_1" xmlns="http://www.w3.org/2000/svg" xmlns:xlink="http://www.w3.org/1999/xlink" x="0px" y="0px"
	 width="936px" height="216px" viewBox="0 0 936 216" enable-background="new 0 0 936 216" xml:space="preserve">
<g>
	<path fill="none" stroke="#979797" stroke-width="6" stroke-miterlimit="10" d="M496.101,116.982c0,0,0.001-28.124,30.605-36.395
		c0,0,26.261-7.444,17.369-34.74"/>
	<path fill="none" stroke="#979797" stroke-width="6" stroke-miterlimit="10" d="M552.967,45.848c0,0,21.092,8.685,21.092,27.296"/>
	<path fill="none" stroke="#979797" stroke-width="6" stroke-miterlimit="10" d="M557.309,73.144c0,0,17.371,9.305,6.203,34.12"/>
	<path fill="none" stroke="#979797" stroke-width="6" stroke-miterlimit="10" d="M548.624,90.203c0,0,8.063,29.467-11.167,38.152"/>
	<path fill="none" stroke="#979797" stroke-width="6" stroke-miterlimit="10" d="M533.114,103.618c0,0,3.103,25.978-16.749,33.422"
		/>
	<path fill="none" stroke="#979797" stroke-width="6" stroke-miterlimit="10" d="M496.101,116.982c0,0,0.001-28.124,30.605-36.395
		c0,0,26.261-7.444,17.369-34.74"/>
	<path fill="none" stroke="#979797" stroke-width="6" stroke-miterlimit="10" d="M552.967,45.848c0,0,21.092,8.685,21.092,27.296"/>
	<path fill="none" stroke="#979797" stroke-width="6" stroke-miterlimit="10" d="M557.309,73.144c0,0,17.371,9.305,6.203,34.12"/>
	<path fill="none" stroke="#979797" stroke-width="6" stroke-miterlimit="10" d="M548.624,90.203c0,0,8.063,29.467-11.167,38.152"/>
	<path fill="none" stroke="#979797" stroke-width="6" stroke-miterlimit="10" d="M533.114,103.618c0,0,3.103,25.978-16.749,33.422"
		/>
	<path fill="none" stroke="#979797" stroke-width="6" stroke-miterlimit="10" d="M434.442,115.742c0,0-0.002-28.124-30.605-36.395
		c0,0-26.261-7.445-17.37-34.74"/>
	<path fill="none" stroke="#979797" stroke-width="6" stroke-miterlimit="10" d="M377.577,44.607c0,0-21.092,8.685-21.092,27.295"/>
	<path fill="none" stroke="#979797" stroke-width="6" stroke-miterlimit="10" d="M373.234,71.902c0,0-17.37,9.306-6.204,34.12"/>
	<path fill="none" stroke="#979797" stroke-width="6" stroke-miterlimit="10" d="M381.918,88.962c0,0-8.064,29.467,11.167,38.153"/>
	<path fill="none" stroke="#979797" stroke-width="6" stroke-miterlimit="10" d="M397.427,102.377c0,0-3.101,25.978,16.75,33.422"/>
	<circle fill="#21B7EB" cx="464.152" cy="135.8" r="38.75"/>
</g>
<polygon fill="#31A328" points="591.25,110.756 714.75,106.506 714.75,94.006 740.25,110.756 715.5,126.006 714.5,115.256 "/>
<polygon fill="#31A328" points="344.25,110.265 220.75,106.015 220.75,93.515 195.25,110.265 220,125.515 221,114.765 "/>
<g>
	<circle fill="none" stroke="#595A5A" stroke-width="8" stroke-miterlimit="10" cx="129.656" cy="109.515" r="30.908"/>
	<g>
		<g>
			<g>
				<g>
					<g>
						<path fill="#6E6F6F" d="M172.481,122.827l5.092,1.581c0,0,0.236-0.915,0.591-2.287c0.176-0.688,0.38-1.488,0.6-2.347
							c0.168-0.883,0.296-1.852,0.446-2.807c0.129-0.948,0.32-1.942,0.38-2.793c0.042-0.839,0.082-1.621,0.116-2.292
							c0.068-1.343,0.113-2.237,0.113-2.237l-5.325-0.27c0,0-0.045,0.895-0.113,2.236c-0.034,0.672-0.073,1.454-0.116,2.293
							c-0.059,0.822-0.235,1.584-0.346,2.406c-0.132,0.809-0.232,1.616-0.375,2.378c-0.198,0.766-0.383,1.48-0.542,2.094
							C172.69,122.009,172.481,122.827,172.481,122.827z"/>
						<path fill="#6E6F6F" d="M162.42,140.046l3.9,3.636c0,0,0.635-0.699,1.587-1.748c0.501-0.504,0.961-1.194,1.501-1.896
							c0.53-0.71,1.095-1.467,1.66-2.223c1.031-1.581,1.982-3.217,2.718-4.427c0.617-1.275,1.028-2.126,1.028-2.126l-4.803-2.317
							c0,0-0.365,0.762-0.913,1.902c-0.665,1.077-1.513,2.54-2.43,3.955c-0.506,0.676-1.013,1.352-1.487,1.985
							c-0.482,0.627-0.887,1.25-1.34,1.696C162.988,139.421,162.42,140.046,162.42,140.046z"/>
						<path fill="#6E6F6F" d="M145.935,151.253l1.939,4.967c0,0,0.222-0.081,0.61-0.224c0.194-0.071,0.429-0.158,0.7-0.258
							c0.259-0.125,0.552-0.265,0.872-0.418c0.638-0.308,1.383-0.666,2.181-1.05c0.399-0.193,0.811-0.393,1.229-0.595
							c0.408-0.223,0.805-0.48,1.211-0.721c1.613-0.983,3.255-1.924,4.352-2.829c1.134-0.849,1.891-1.414,1.891-1.414l-3.327-4.167
							c0,0-0.677,0.506-1.691,1.264c-0.975,0.816-2.45,1.646-3.889,2.528c-0.363,0.216-0.716,0.449-1.081,0.647
							c-0.375,0.18-0.743,0.356-1.1,0.527c-0.712,0.344-1.377,0.664-1.948,0.938c-0.285,0.139-0.546,0.265-0.777,0.377
							c-0.242,0.088-0.453,0.164-0.626,0.228C146.133,151.181,145.935,151.253,145.935,151.253z"/>
						<path fill="#6E6F6F" d="M126.14,154.169l-0.27,5.325c0,0,0.895,0.045,2.236,0.112c0.335,0.018,0.699,0.035,1.083,0.055
							l0.292,0.015l0.207,0.004l0.079-0.004l0.159-0.007c0.213-0.011,0.43-0.021,0.651-0.032c0.884-0.044,1.827-0.092,2.769-0.139
							c0.472-0.024,0.943-0.05,1.407-0.074c0.459-0.067,0.912-0.135,1.35-0.2c0.875-0.134,1.692-0.258,2.393-0.365
							c0.699-0.114,1.288-0.177,1.684-0.302c0.4-0.103,0.629-0.16,0.629-0.16l-1.182-5.2c0,0-0.205,0.054-0.562,0.146
							c-0.353,0.116-0.88,0.166-1.505,0.268c-0.625,0.095-1.355,0.206-2.138,0.326c-0.391,0.06-0.795,0.121-1.206,0.184
							c-0.416,0.021-0.837,0.041-1.259,0.061c-0.843,0.043-1.687,0.086-2.478,0.126c-0.198,0.011-0.392,0.021-0.583,0.031
							l-0.142,0.008l-0.07,0.003l-0.018,0.001l-0.009,0.001c0.061,0.001-0.141-0.004,0.134,0.004l-0.005-0.001l-0.037-0.002
							l-0.292-0.015c-0.384-0.02-0.748-0.037-1.083-0.055C127.034,154.214,126.14,154.169,126.14,154.169z"/>
						<path fill="#6E6F6F" d="M107.178,148.264l-2.68,4.609c0,0,0.202,0.123,0.556,0.337c0.177,0.106,0.392,0.236,0.638,0.386
							c0.254,0.135,0.55,0.27,0.868,0.426c0.638,0.308,1.383,0.667,2.181,1.052c0.399,0.191,0.812,0.39,1.231,0.591
							c0.424,0.19,0.876,0.332,1.317,0.502c1.779,0.637,3.531,1.358,4.926,1.643c1.373,0.353,2.289,0.588,2.289,0.588l1.182-5.2
							c0,0-0.817-0.21-2.043-0.525c-1.248-0.243-2.808-0.904-4.398-1.466c-0.394-0.151-0.799-0.274-1.177-0.445
							c-0.374-0.181-0.742-0.358-1.098-0.531c-0.713-0.343-1.378-0.663-1.949-0.938c-0.284-0.14-0.549-0.258-0.776-0.378
							c-0.22-0.134-0.411-0.251-0.569-0.348C107.358,148.373,107.178,148.264,107.178,148.264z"/>
						<path fill="#6E6F6F" d="M92.556,134.687l-4.409,2.998c0,0,0.564,0.757,1.412,1.893c0.428,0.564,0.913,1.234,1.459,1.93
							c0.595,0.655,1.229,1.354,1.864,2.054c1.218,1.449,2.674,2.661,3.713,3.623c0.529,0.472,0.953,0.884,1.278,1.138
							c0.331,0.248,0.519,0.39,0.519,0.39l3.328-4.166c0,0-0.169-0.126-0.466-0.347c-0.291-0.227-0.667-0.599-1.14-1.021
							c-0.926-0.863-2.237-1.938-3.32-3.24c-0.568-0.624-1.137-1.248-1.67-1.834c-0.476-0.632-0.92-1.223-1.3-1.729
							C93.063,135.362,92.556,134.687,92.556,134.687z"/>
						<path fill="#6E6F6F" d="M85.36,116.101l-5.275,0.778c0,0,0.144,0.934,0.358,2.334c0.271,1.389,0.796,3.208,1.254,5.041
							c0.615,1.784,1.277,3.557,1.778,4.881c0.613,1.277,1.022,2.129,1.022,2.129l4.803-2.317c0,0-0.367-0.759-0.918-1.898
							c-0.441-1.186-1.031-2.768-1.587-4.359c-0.398-1.639-0.876-3.261-1.119-4.501C85.487,116.936,85.36,116.101,85.36,116.101z"/>
					</g>
				</g>
				<g>
					<g>
						<path fill="#6E6F6F" d="M86.83,96.202l-5.092-1.581c0,0-0.236,0.915-0.591,2.287c-0.175,0.687-0.38,1.488-0.6,2.346
							c-0.168,0.883-0.296,1.852-0.446,2.807c-0.129,0.948-0.32,1.941-0.38,2.792c-0.042,0.839-0.082,1.622-0.116,2.292
							c-0.068,1.342-0.113,2.236-0.113,2.236l5.325,0.271c0,0,0.045-0.895,0.113-2.237c0.034-0.671,0.074-1.454,0.116-2.292
							c0.06-0.822,0.235-1.583,0.346-2.406c0.132-0.809,0.232-1.616,0.375-2.377c0.198-0.766,0.383-1.481,0.542-2.094
							C86.622,97.02,86.83,96.202,86.83,96.202z"/>
						<path fill="#6E6F6F" d="M96.891,78.983l-3.9-3.636c0,0-0.635,0.699-1.587,1.748c-0.501,0.504-0.961,1.194-1.501,1.896
							c-0.53,0.709-1.095,1.466-1.66,2.223c-1.031,1.581-1.982,3.216-2.718,4.426c-0.617,1.276-1.028,2.126-1.028,2.126l4.803,2.317
							c0,0,0.365-0.761,0.913-1.902c0.664-1.077,1.513-2.54,2.43-3.955c0.506-0.676,1.012-1.352,1.487-1.985
							c0.482-0.627,0.887-1.25,1.34-1.697C96.323,79.608,96.891,78.983,96.891,78.983z"/>
						<path fill="#6E6F6F" d="M113.375,67.776l-1.938-4.967c0,0-0.222,0.082-0.61,0.224c-0.194,0.072-0.43,0.158-0.7,0.258
							c-0.259,0.125-0.552,0.265-0.872,0.418c-0.638,0.308-1.383,0.666-2.182,1.05c-0.398,0.193-0.811,0.392-1.229,0.595
							c-0.408,0.222-0.805,0.479-1.211,0.72c-1.613,0.983-3.255,1.924-4.352,2.829c-1.134,0.849-1.891,1.415-1.891,1.415
							l3.327,4.167c0,0,0.677-0.505,1.691-1.263c0.975-0.817,2.45-1.646,3.889-2.529c0.363-0.215,0.716-0.449,1.081-0.647
							c0.375-0.18,0.743-0.356,1.1-0.527c0.712-0.344,1.377-0.665,1.948-0.939c0.285-0.138,0.546-0.265,0.777-0.376
							c0.242-0.088,0.453-0.165,0.626-0.228C113.178,67.848,113.375,67.776,113.375,67.776z"/>
						<path fill="#6E6F6F" d="M133.171,64.86l0.27-5.325c0,0-0.895-0.045-2.236-0.113c-0.335-0.017-0.699-0.035-1.083-0.055
							l-0.292-0.015l-0.207-0.004l-0.079,0.004l-0.159,0.008c-0.213,0.01-0.43,0.021-0.651,0.031
							c-0.884,0.044-1.827,0.092-2.769,0.139c-0.472,0.025-0.943,0.049-1.407,0.074c-0.459,0.068-0.912,0.136-1.35,0.201
							c-0.875,0.133-1.692,0.258-2.393,0.365c-0.699,0.115-1.288,0.176-1.684,0.302c-0.4,0.102-0.629,0.161-0.629,0.161l1.182,5.199
							c0,0,0.204-0.053,0.562-0.146c0.353-0.116,0.88-0.165,1.505-0.267c0.625-0.096,1.355-0.207,2.138-0.326
							c0.391-0.06,0.795-0.122,1.206-0.184c0.416-0.02,0.837-0.041,1.259-0.061c0.843-0.043,1.687-0.085,2.478-0.126
							c0.198-0.01,0.392-0.021,0.583-0.031l0.142-0.007l0.07-0.004l0.018-0.001l0.009,0c0.125,0.003-0.166-0.004-0.134-0.003h0.004
							l0.037,0.002l0.292,0.015c0.385,0.02,0.748,0.038,1.083,0.055C132.277,64.815,133.171,64.86,133.171,64.86z"/>
						<path fill="#6E6F6F" d="M152.132,70.765l2.68-4.609c0,0-0.202-0.123-0.556-0.336c-0.177-0.107-0.392-0.237-0.638-0.386
							c-0.254-0.135-0.55-0.27-0.868-0.426c-0.639-0.308-1.383-0.667-2.181-1.051c-0.399-0.192-0.812-0.39-1.231-0.591
							c-0.424-0.19-0.876-0.333-1.317-0.502c-1.779-0.637-3.531-1.359-4.926-1.643c-1.373-0.353-2.289-0.588-2.289-0.588l-1.182,5.2
							c0,0,0.817,0.21,2.043,0.526c1.248,0.243,2.808,0.903,4.398,1.466c0.394,0.151,0.799,0.273,1.177,0.445
							c0.374,0.181,0.742,0.359,1.098,0.531c0.713,0.343,1.378,0.664,1.949,0.938c0.284,0.139,0.549,0.257,0.776,0.377
							c0.22,0.134,0.411,0.251,0.568,0.348C151.952,70.655,152.132,70.765,152.132,70.765z"/>
						<path fill="#6E6F6F" d="M166.755,84.342l4.41-2.998c0,0-0.565-0.757-1.412-1.893c-0.428-0.564-0.913-1.234-1.459-1.93
							c-0.595-0.656-1.229-1.355-1.864-2.054c-1.219-1.449-2.674-2.661-3.713-3.623c-0.528-0.471-0.953-0.883-1.278-1.138
							c-0.33-0.248-0.519-0.39-0.519-0.39l-3.327,4.167c0,0,0.169,0.126,0.466,0.347c0.291,0.227,0.667,0.599,1.14,1.021
							c0.926,0.863,2.237,1.938,3.32,3.24c0.568,0.625,1.137,1.249,1.67,1.834c0.476,0.632,0.92,1.223,1.3,1.729
							C166.249,83.667,166.755,84.342,166.755,84.342z"/>
						<path fill="#6E6F6F" d="M173.951,102.928l5.275-0.778c0,0-0.144-0.934-0.358-2.333c-0.271-1.389-0.796-3.209-1.254-5.041
							c-0.615-1.785-1.277-3.557-1.778-4.881c-0.613-1.277-1.022-2.129-1.022-2.129l-4.802,2.316c0,0,0.367,0.76,0.918,1.899
							c0.441,1.185,1.031,2.768,1.587,4.359c0.398,1.639,0.876,3.261,1.119,4.501C173.824,102.094,173.951,102.928,173.951,102.928z
							"/>
					</g>
				</g>
			</g>
		</g>
	</g>
</g>
<g>
	<circle fill="none" stroke="#595A5A" stroke-width="8" stroke-miterlimit="10" cx="806.728" cy="110.007" r="30.908"/>
	<g>
		<g>
			<g>
				<g>
					<g>
						<path fill="#6E6F6F" d="M849.553,123.319l5.092,1.581c0,0,0.237-0.915,0.592-2.287c0.176-0.688,0.381-1.488,0.601-2.347
							c0.168-0.883,0.296-1.852,0.446-2.807c0.128-0.948,0.319-1.942,0.379-2.793c0.043-0.839,0.082-1.621,0.116-2.292
							c0.067-1.343,0.113-2.237,0.113-2.237l-5.325-0.27c0,0-0.046,0.895-0.113,2.236c-0.034,0.672-0.073,1.454-0.116,2.293
							c-0.059,0.822-0.234,1.584-0.346,2.406c-0.133,0.809-0.232,1.616-0.375,2.378c-0.198,0.766-0.383,1.48-0.541,2.094
							C849.762,122.501,849.553,123.319,849.553,123.319z"/>
						<path fill="#6E6F6F" d="M839.492,140.538l3.899,3.636c0,0,0.635-0.699,1.587-1.748c0.501-0.504,0.961-1.194,1.501-1.896
							c0.53-0.71,1.095-1.467,1.66-2.224c1.03-1.58,1.982-3.216,2.718-4.426c0.617-1.275,1.027-2.126,1.027-2.126l-4.802-2.317
							c0,0-0.365,0.762-0.913,1.902c-0.664,1.077-1.513,2.54-2.431,3.955c-0.506,0.676-1.012,1.352-1.486,1.985
							c-0.483,0.627-0.888,1.25-1.34,1.696C840.061,139.913,839.492,140.538,839.492,140.538z"/>
						<path fill="#6E6F6F" d="M823.008,151.745l1.938,4.967c0,0,0.222-0.081,0.609-0.224c0.194-0.071,0.43-0.158,0.7-0.258
							c0.26-0.124,0.552-0.265,0.872-0.418c0.638-0.308,1.383-0.666,2.182-1.05c0.398-0.193,0.811-0.393,1.229-0.595
							c0.408-0.223,0.805-0.48,1.211-0.721c1.613-0.983,3.256-1.924,4.353-2.829c1.134-0.849,1.89-1.414,1.89-1.414l-3.327-4.167
							c0,0-0.677,0.506-1.691,1.264c-0.975,0.816-2.45,1.646-3.889,2.528c-0.362,0.216-0.716,0.449-1.08,0.647
							c-0.375,0.18-0.743,0.356-1.1,0.527c-0.713,0.344-1.378,0.664-1.948,0.938c-0.285,0.139-0.546,0.265-0.777,0.377
							c-0.242,0.088-0.452,0.164-0.626,0.228C823.206,151.673,823.008,151.745,823.008,151.745z"/>
						<path fill="#6E6F6F" d="M803.212,154.661l-0.27,5.325c0,0,0.895,0.045,2.236,0.112c0.335,0.018,0.698,0.035,1.083,0.055
							l0.292,0.015l0.207,0.004l0.079-0.004l0.158-0.007c0.213-0.011,0.43-0.021,0.65-0.032c0.884-0.044,1.827-0.092,2.77-0.139
							c0.472-0.024,0.942-0.05,1.406-0.074c0.46-0.067,0.912-0.135,1.351-0.2c0.875-0.134,1.692-0.258,2.393-0.365
							c0.698-0.114,1.288-0.176,1.684-0.302c0.4-0.103,0.629-0.16,0.629-0.16l-1.182-5.2c0,0-0.204,0.054-0.562,0.146
							c-0.353,0.117-0.88,0.166-1.504,0.268c-0.626,0.095-1.356,0.207-2.139,0.326c-0.391,0.06-0.795,0.121-1.205,0.184
							c-0.416,0.021-0.838,0.041-1.26,0.061c-0.843,0.043-1.687,0.086-2.478,0.126c-0.197,0.011-0.392,0.021-0.582,0.031
							l-0.142,0.008l-0.071,0.003l-0.017,0.001l-0.01,0.001c0.061,0.001-0.141-0.004,0.135,0.004l-0.005-0.001l-0.037-0.002
							l-0.292-0.015c-0.384-0.02-0.748-0.037-1.083-0.055C804.106,154.706,803.212,154.661,803.212,154.661z"/>
						<path fill="#6E6F6F" d="M784.251,148.756l-2.68,4.609c0,0,0.201,0.122,0.555,0.337c0.177,0.106,0.392,0.236,0.638,0.386
							c0.254,0.135,0.551,0.27,0.868,0.426c0.639,0.308,1.383,0.667,2.181,1.052c0.399,0.191,0.813,0.39,1.231,0.59
							c0.424,0.191,0.876,0.333,1.317,0.503c1.778,0.637,3.531,1.358,4.926,1.643c1.372,0.353,2.288,0.587,2.288,0.587l1.182-5.199
							c0,0-0.817-0.21-2.043-0.525c-1.248-0.243-2.808-0.904-4.398-1.466c-0.394-0.151-0.799-0.274-1.178-0.445
							c-0.373-0.181-0.741-0.359-1.098-0.531c-0.713-0.343-1.378-0.663-1.948-0.938c-0.284-0.14-0.55-0.258-0.777-0.378
							c-0.219-0.135-0.41-0.251-0.568-0.348C784.431,148.865,784.251,148.756,784.251,148.756z"/>
						<path fill="#6E6F6F" d="M769.628,135.179l-4.409,2.998c0,0,0.564,0.757,1.412,1.892c0.428,0.564,0.912,1.235,1.459,1.931
							c0.595,0.655,1.229,1.354,1.863,2.054c1.219,1.449,2.675,2.661,3.714,3.623c0.528,0.471,0.952,0.883,1.277,1.138
							c0.33,0.248,0.52,0.39,0.52,0.39l3.327-4.166c0,0-0.17-0.126-0.466-0.347c-0.291-0.227-0.667-0.6-1.14-1.021
							c-0.926-0.863-2.237-1.938-3.32-3.24c-0.568-0.624-1.137-1.248-1.67-1.834c-0.477-0.632-0.92-1.223-1.301-1.729
							C770.135,135.854,769.628,135.179,769.628,135.179z"/>
						<path fill="#6E6F6F" d="M762.433,116.593l-5.274,0.778c0,0,0.143,0.934,0.358,2.334c0.271,1.389,0.796,3.208,1.254,5.041
							c0.615,1.784,1.276,3.557,1.777,4.881c0.613,1.277,1.022,2.129,1.022,2.129l4.803-2.317c0,0-0.367-0.76-0.918-1.898
							c-0.441-1.186-1.031-2.768-1.588-4.359c-0.398-1.639-0.876-3.261-1.118-4.501C762.56,117.428,762.433,116.593,762.433,116.593
							z"/>
					</g>
				</g>
				<g>
					<g>
						<path fill="#6E6F6F" d="M763.902,96.694l-5.092-1.581c0,0-0.236,0.915-0.592,2.287c-0.176,0.687-0.381,1.488-0.6,2.346
							c-0.169,0.883-0.297,1.852-0.447,2.807c-0.128,0.948-0.319,1.941-0.379,2.792c-0.043,0.839-0.082,1.622-0.116,2.292
							c-0.067,1.342-0.113,2.236-0.113,2.236l5.325,0.271c0,0,0.046-0.896,0.113-2.237c0.034-0.671,0.073-1.454,0.116-2.292
							c0.059-0.822,0.234-1.583,0.346-2.406c0.133-0.809,0.232-1.616,0.375-2.377c0.198-0.766,0.383-1.481,0.542-2.094
							C763.693,97.512,763.902,96.694,763.902,96.694z"/>
						<path fill="#6E6F6F" d="M773.964,79.476l-3.9-3.636c0,0-0.635,0.699-1.587,1.748c-0.501,0.504-0.961,1.194-1.501,1.896
							c-0.529,0.709-1.095,1.466-1.659,2.223c-1.031,1.581-1.982,3.216-2.719,4.426c-0.616,1.276-1.027,2.126-1.027,2.126
							l4.803,2.317c0,0,0.364-0.761,0.912-1.902c0.665-1.077,1.514-2.54,2.431-3.955c0.506-0.676,1.013-1.352,1.487-1.985
							c0.482-0.627,0.887-1.25,1.34-1.697C773.396,80.1,773.964,79.476,773.964,79.476z"/>
						<path fill="#6E6F6F" d="M790.448,68.268l-1.939-4.967c0,0-0.222,0.082-0.609,0.225c-0.194,0.071-0.43,0.158-0.699,0.258
							c-0.26,0.124-0.553,0.265-0.872,0.417c-0.639,0.308-1.384,0.666-2.182,1.05c-0.399,0.193-0.811,0.392-1.229,0.595
							c-0.408,0.222-0.805,0.48-1.211,0.72c-1.613,0.983-3.256,1.924-4.352,2.829c-1.135,0.849-1.891,1.415-1.891,1.415l3.327,4.167
							c0,0,0.677-0.505,1.691-1.263c0.976-0.817,2.45-1.646,3.889-2.529c0.363-0.215,0.716-0.449,1.08-0.647
							c0.375-0.18,0.743-0.356,1.101-0.527c0.713-0.344,1.378-0.665,1.948-0.939c0.284-0.138,0.546-0.264,0.777-0.376
							c0.241-0.088,0.452-0.165,0.625-0.228C790.25,68.34,790.448,68.268,790.448,68.268z"/>
						<path fill="#6E6F6F" d="M810.243,65.353l0.27-5.325c0,0-0.895-0.045-2.236-0.113c-0.335-0.017-0.698-0.035-1.083-0.055
							l-0.292-0.015l-0.207-0.004l-0.078,0.004l-0.159,0.008c-0.213,0.01-0.43,0.021-0.65,0.031
							c-0.884,0.044-1.826,0.092-2.77,0.139c-0.471,0.025-0.942,0.049-1.406,0.074c-0.46,0.068-0.912,0.136-1.35,0.201
							c-0.876,0.133-1.692,0.258-2.394,0.365c-0.698,0.115-1.287,0.176-1.684,0.302c-0.4,0.102-0.629,0.161-0.629,0.161l1.182,5.199
							c0,0,0.204-0.053,0.562-0.146c0.353-0.116,0.88-0.165,1.505-0.267c0.625-0.096,1.355-0.207,2.138-0.326
							c0.391-0.06,0.795-0.122,1.206-0.184c0.415-0.02,0.837-0.041,1.259-0.061c0.844-0.043,1.687-0.085,2.478-0.126
							c0.197-0.01,0.392-0.021,0.582-0.031l0.143-0.007l0.07-0.004l0.018-0.001l0.009,0c0.125,0.003-0.166-0.004-0.135-0.003h0.005
							l0.037,0.002l0.292,0.015c0.385,0.02,0.748,0.038,1.083,0.055C809.349,65.307,810.243,65.353,810.243,65.353z"/>
						<path fill="#6E6F6F" d="M829.205,71.257l2.68-4.609c0,0-0.202-0.123-0.556-0.336c-0.177-0.107-0.392-0.237-0.638-0.386
							c-0.254-0.135-0.55-0.27-0.868-0.426c-0.638-0.308-1.383-0.667-2.181-1.051c-0.399-0.192-0.813-0.39-1.231-0.591
							c-0.424-0.19-0.876-0.333-1.316-0.502c-1.779-0.637-3.531-1.359-4.926-1.643c-1.373-0.353-2.288-0.588-2.288-0.588l-1.183,5.2
							c0,0,0.817,0.21,2.043,0.526c1.249,0.243,2.809,0.903,4.398,1.466c0.394,0.151,0.8,0.273,1.178,0.445
							c0.374,0.181,0.741,0.359,1.098,0.531c0.713,0.343,1.379,0.664,1.949,0.938c0.284,0.139,0.549,0.257,0.776,0.377
							c0.22,0.134,0.411,0.251,0.568,0.348C829.024,71.147,829.205,71.257,829.205,71.257z"/>
						<path fill="#6E6F6F" d="M843.827,84.834l4.409-2.998c0,0-0.564-0.757-1.412-1.893c-0.427-0.564-0.912-1.234-1.459-1.93
							c-0.595-0.656-1.229-1.355-1.863-2.054c-1.219-1.449-2.675-2.661-3.714-3.623c-0.528-0.471-0.952-0.883-1.277-1.138
							c-0.33-0.248-0.52-0.39-0.52-0.39l-3.327,4.167c0,0,0.17,0.126,0.466,0.347c0.291,0.227,0.668,0.599,1.14,1.021
							c0.926,0.863,2.237,1.938,3.32,3.24c0.568,0.625,1.138,1.249,1.67,1.834c0.477,0.632,0.92,1.223,1.301,1.729
							C843.32,84.159,843.827,84.834,843.827,84.834z"/>
						<path fill="#6E6F6F" d="M851.022,103.42l5.274-0.778c0,0-0.143-0.934-0.358-2.333c-0.271-1.389-0.796-3.208-1.254-5.041
							c-0.615-1.785-1.276-3.557-1.777-4.881c-0.613-1.277-1.022-2.129-1.022-2.129l-4.803,2.317c0,0,0.367,0.759,0.918,1.899
							c0.441,1.185,1.031,2.768,1.588,4.359c0.398,1.639,0.876,3.261,1.118,4.501C850.896,102.586,851.022,103.42,851.022,103.42z"
							/>
					</g>
				</g>
			</g>
		</g>
	</g>
</g>
</svg>
